<svg width="400" height="400" viewBox="0 0 400 400" fill="none" xmlns="http://www.w3.org/2000/svg">
  <path d="M323.617 223.218C318.891 222.013 314.814 220.994 314.814 217.102C314.814 214.044 317.131 212.098 320.837 212.098C324.266 211.912 327.417 214.229 328.065 217.658L337.332 213.21C334.83 207.094 328.807 203.387 321.115 203.387C311.107 203.387 304.157 209.503 304.157 218.214C304.157 228.87 311.849 230.909 318.706 232.67C323.525 233.874 327.602 234.986 327.602 238.971C327.602 242.307 324.915 244.438 320.837 244.438C316.76 244.438 313.331 242.214 312.405 238.878L303.138 243.326C305.733 249.442 312.312 253.149 320.467 253.149C331.309 253.149 338.259 247.126 338.259 237.674C338.259 226.924 330.104 224.886 323.617 223.218Z" fill="white"/>
  <path d="M339 160.296V165.208H331.123V169.841H337.981L336.683 174.567H331.123V181.888H325.749V160.296H339Z" fill="white"/>
  <path d="M312.219 165.3C315.555 165.3 318.243 167.988 318.243 171.324C318.243 174.66 315.555 177.347 312.219 177.347C308.883 177.347 306.196 174.66 306.196 171.324C306.196 167.988 308.883 165.3 312.219 165.3ZM312.219 182.536C318.428 182.536 323.432 177.44 323.432 171.231C323.432 165.022 318.335 160.018 312.127 160.018C305.918 160.018 300.914 165.115 300.914 171.231C300.914 177.532 306.011 182.629 312.219 182.536Z" fill="white"/>
  <path d="M213.437 251.759H223.445V220.16L246.148 251.759H256.619V203.665H246.519V235.728L224.093 203.665H211.12L213.437 208.391V251.759Z" fill="white"/>
  <path d="M290.535 233.411C289.145 236.84 286.365 239.527 283.029 241.01C281.269 241.751 279.415 242.122 277.469 242.122H271.724V213.395H277.469C279.415 213.395 281.269 213.766 283.029 214.507C286.458 215.897 289.145 218.677 290.535 222.106C292.018 225.812 292.018 229.797 290.535 233.411ZM287.199 205.611C284.141 204.406 280.898 203.758 277.655 203.572H261.253V251.666H277.655C284.141 251.666 290.35 249.257 295.076 244.809C297.3 242.678 299.153 240.083 300.358 237.21C304.343 228.129 302.211 217.565 295.076 210.708C292.759 208.576 290.165 206.816 287.199 205.611Z" fill="white"/>
  <path d="M125.125 251.759H96.4913V203.665H125.125V213.024H106.963V222.754H123.55L121.048 231.836H106.963V242.4L125.125 242.492V251.759Z" fill="white"/>
  <path d="M190.548 213.024H208.711V203.665H180.169V251.759H208.711V242.492L190.548 242.4V231.836H204.633L207.135 222.754H190.548V213.024Z" fill="white"/>
  <path d="M226.873 184.853C225.947 182.166 225.483 179.386 225.576 176.606L225.761 146.952H236.14L236.047 176.142C236.047 179.386 236.789 181.98 238.271 183.834C241.793 187.54 247.723 187.633 251.337 184.019L251.523 183.834C253.098 181.98 253.839 179.386 253.839 176.142L253.932 146.86H264.496L264.311 176.791C264.311 179.571 263.94 182.351 263.013 185.038C262.179 187.355 260.789 189.486 259.121 191.34C257.361 193.1 255.322 194.49 253.005 195.324C247.723 197.178 241.978 197.178 236.696 195.232C234.379 194.305 232.341 193.008 230.673 191.154C229.005 189.394 227.707 187.262 226.873 184.853Z" fill="white"/>
  <path d="M174.795 181.146C173.497 178.088 172.849 174.752 172.849 171.509C172.849 168.173 173.59 164.93 174.887 161.872C176.185 158.906 178.038 156.219 180.355 153.995C182.671 151.678 185.451 149.918 188.417 148.713C191.475 147.416 194.811 146.767 198.239 146.86C202.78 146.767 207.321 147.972 211.305 150.196C215.012 152.327 218.07 155.478 220.016 159.37L210.564 163.818C209.452 161.594 207.691 159.74 205.56 158.443C203.336 157.146 200.741 156.59 198.147 156.59C196.201 156.59 194.162 156.96 192.401 157.702C190.641 158.443 189.065 159.555 187.768 160.945C186.378 162.335 185.359 164.003 184.617 165.764C183.042 169.563 183.042 173.733 184.525 177.532C185.915 181.146 188.787 184.112 192.309 185.687C194.162 186.521 196.108 186.984 198.147 186.892C201.112 186.984 204.077 186.058 206.487 184.39C208.711 182.814 210.286 180.405 210.935 177.718H193.791L198.054 169.007H221.962C222.055 170.86 221.962 174.845 221.869 175.679C221.591 177.903 221.035 180.127 220.201 182.258C217.885 188.004 213.344 192.452 207.599 194.768C198.147 198.568 187.397 196.344 180.169 189.116C177.853 186.799 176.092 184.112 174.795 181.146Z" fill="white"/>
  <path d="M63.4093 190.228V151.956L61 146.952H73.788V185.78H92.97L90.2827 195.232H61L63.4093 190.228Z" fill="white"/>
  <path d="M63.4093 246.755V208.484L61 203.48H73.788V242.307H92.97L90.2827 251.759H61L63.4093 246.755Z" fill="white"/>
  <path d="M125.125 195.232H96.4913V147.138H125.125V156.498H106.963V166.228H123.55L121.048 175.309H106.963V185.78L125.125 185.873V195.232Z" fill="white"/>
  <path d="M297.671 195.232H269.129V147.138H297.763V156.498H279.601V166.228H296.188L293.686 175.309H279.601V185.78L297.763 185.873V195.232L297.671 195.232Z" fill="white"/>
  <path d="M152.555 160.482L158.578 176.698H146.253L152.555 160.482ZM139.118 195.232L142.732 185.872H162.007L165.713 195.232H176.555L157.188 146.952H142.361L145.512 153.254L128.461 195.232H139.118Z" fill="white"/>
  <path d="M146.809 252.5C148.57 252.871 150.331 253.056 152.184 253.056C155.427 253.149 158.671 252.5 161.729 251.296C167.474 248.979 172.015 244.531 174.331 238.786C175.165 236.654 175.721 234.43 175.999 232.206C176.185 229.982 176.185 227.758 176.092 225.442H152.184V225.534L147.921 234.245H164.972C164.323 236.932 162.748 239.342 160.524 240.917C158.115 242.678 155.242 243.512 152.277 243.419C151.35 243.419 150.516 243.326 149.589 243.141L147.458 242.585C147.087 242.492 146.809 242.307 146.439 242.214C142.917 240.639 140.045 237.766 138.655 234.06C137.172 230.26 137.172 225.998 138.747 222.198C139.489 220.438 140.601 218.77 141.898 217.38C143.195 215.99 144.863 214.97 146.624 214.229C148.477 213.488 150.423 213.117 152.369 213.117C154.964 213.024 157.559 213.673 159.783 214.97C161.914 216.268 163.675 218.121 164.787 220.345L174.239 215.897C172.293 212.005 169.327 208.854 165.528 206.723C161.543 204.499 157.095 203.387 152.462 203.387C145.79 203.294 139.396 205.889 134.577 210.615C132.261 212.839 130.407 215.526 129.11 218.492C126.423 224.608 126.423 231.65 129.017 237.766C130.315 240.732 132.075 243.419 134.299 245.736C136.338 247.774 138.747 249.442 141.342 250.74C143.164 251.561 144.987 252.227 146.809 252.5Z" fill="white"/>
  </svg>
  