<svg width="341" height="65" viewBox="0 0 341 65" fill="none" xmlns="http://www.w3.org/2000/svg">
<path d="M38.2063 22.0833L26.034 2.97125C26.034 2.97125 19.245 43.2495 7.48661 24.386C6.71983 24.0575 2.16459 37.5031 10.9328 41.3699C11.5207 41.6278 12.8459 41.9451 14.536 41.877C17.6728 30.3728 26.4216 20.81 38.2106 22.0824L38.2063 22.0833Z" fill="white"/>
<path d="M40.8543 23.3051C40.4018 23.1054 39.5065 22.8684 38.347 22.8026C24.4278 25.7552 18.5354 37.5962 20.4672 49.1279C21.1823 53.3916 22.999 57.6052 25.8624 61.0695C22.7697 52.1146 33.0231 24.519 44.3005 40.289C45.0673 40.6175 49.6225 27.1719 40.8543 23.3051ZM23.5836 35.9602C23.7272 35.7363 23.8647 35.5049 24.0012 35.2692C23.8656 35.5091 23.7282 35.7405 23.5836 35.9602ZM24.0909 35.1065C24.1715 34.9636 24.2469 34.8175 24.3266 34.6704C24.2522 34.8208 24.1715 34.9636 24.0909 35.1065ZM26.1597 30.6909C26.2394 30.5438 26.3138 30.3935 26.3954 30.2548C26.3147 30.3977 26.2394 30.5438 26.1597 30.6909ZM26.4851 30.0921C26.6206 29.8522 26.7633 29.6241 26.9017 29.3969C26.7624 29.6199 26.6206 29.8522 26.4851 30.0921Z" fill="white"/>
<path d="M83.6048 17.5683V23.5376H74.8997V47H67.6039V23.5376H58.9402V17.5683H83.6048ZM94.8052 47.4974C87.7582 47.4974 83.1155 42.9376 83.1155 36.0149C83.1155 29.0923 87.7582 24.5324 94.8052 24.5324C101.894 24.5324 106.536 29.0923 106.536 36.0149C106.536 42.9376 101.894 47.4974 94.8052 47.4974ZM90.4941 36.0149C90.4941 39.953 92.0279 42.1914 94.8052 42.1914C97.5826 42.1914 99.1578 39.953 99.1578 36.0149C99.1578 32.0769 97.5826 29.8384 94.8052 29.8384C92.0279 29.8384 90.4941 32.0769 90.4941 36.0149ZM131.285 47H124.777L124.611 43.6423C123.409 46.4611 121.005 47.4974 118.186 47.4974C113.543 47.4974 110.641 44.3885 110.641 39.1654V25.0299H117.854V36.7196C117.854 40.0359 118.393 41.9013 120.714 41.9013C122.994 41.9013 124.072 40.0359 124.072 36.7196V25.0299H131.285V47ZM136.455 25.0299H143.419L143.543 29.5068C144.414 26.5636 146.113 25.0299 148.849 25.0299H150.839V30.253H148.808C145.119 30.253 143.668 31.8282 143.668 35.103V47H136.455V25.0299ZM154.186 25.0299H160.652L160.86 28.429C162.062 25.5688 164.466 24.5324 167.368 24.5324C172.052 24.5324 174.954 27.6414 174.954 32.8645V47H167.741V35.3102C167.741 31.994 167.202 30.1286 164.839 30.1286C162.476 30.1286 161.399 31.994 161.399 35.3102V47H154.186V25.0299ZM190.018 47.4974C182.971 47.4974 178.328 42.9376 178.328 36.0149C178.328 29.0923 182.971 24.5324 190.018 24.5324C197.106 24.5324 201.749 29.0923 201.749 36.0149C201.749 42.9376 197.106 47.4974 190.018 47.4974ZM185.707 36.0149C185.707 39.953 187.24 42.1914 190.018 42.1914C192.795 42.1914 194.37 39.953 194.37 36.0149C194.37 32.0769 192.795 29.8384 190.018 29.8384C187.24 29.8384 185.707 32.0769 185.707 36.0149ZM205.354 25.0299H212.567V47H205.354V25.0299ZM205.272 22.3769V17.5683H212.692V22.3769H205.272ZM230.722 32.2842C230.391 30.3773 228.899 29.2166 227.199 29.2166C225.499 29.2166 224.256 30.1286 224.339 31.538C224.422 32.9474 225.955 33.6107 227.945 33.9008C234.951 34.9786 237.935 36.7611 237.935 40.8649C237.935 45.259 233.873 47.4974 227.779 47.4974C220.94 47.4974 216.794 44.7201 216.421 39.9944L223.634 39.7043C224.007 41.6111 225.334 42.7303 227.572 42.7303C229.023 42.7303 230.598 42.1085 230.557 40.782C230.515 39.1654 228.774 38.7508 226.743 38.3778C219.986 37.1342 216.919 35.476 216.919 31.538C216.919 27.1025 220.691 24.491 227.406 24.491C233.334 24.491 237.148 27.2683 237.852 32.0354L230.722 32.2842ZM251.509 47V17.5683H258.805V29.2166H268.546V17.5683H275.842V47H268.546V35.1859H258.805V47H251.509ZM279.725 47L290.337 17.5683H298.254L308.866 47H301.653L299.746 41.4867H288.803L286.937 47H279.725ZM290.792 35.6833H297.798L294.316 25.4029L290.792 35.6833ZM324.242 47.6632C315.454 47.6632 309.733 41.1137 309.733 32.3256C309.733 23.5376 315.412 16.9051 324.242 16.9051C333.03 16.9051 338.75 23.5376 338.75 32.3256C338.75 37.4243 336.802 41.8184 333.486 44.5543L337.465 49.4457H332.159L329.879 46.6684C328.221 47.2902 326.273 47.6632 324.242 47.6632ZM317.195 32.3256C317.195 37.2585 319.309 41.694 324.242 41.694C324.78 41.694 325.278 41.6526 325.734 41.5282L321.754 36.5953H327.06L329.092 39.1654C330.542 37.5487 331.289 35.0201 331.289 32.3256C331.289 27.3512 329.174 22.8743 324.242 22.8743C319.267 22.8743 317.195 27.3512 317.195 32.3256Z" fill="white"/>
</svg>
