<svg width="384" height="65" viewBox="0 0 384 65" fill="none" xmlns="http://www.w3.org/2000/svg">
<path d="M38.2063 22.0835L26.034 2.97137C26.034 2.97137 19.245 43.2497 7.48661 24.3861C6.71983 24.0576 2.16459 37.5032 10.9328 41.37C11.5207 41.6279 12.8459 41.9452 14.536 41.8772C17.6728 30.373 26.4216 20.8102 38.2106 22.0825L38.2063 22.0835Z" fill="white"/>
<path d="M40.8541 23.3051C40.4016 23.1054 39.5063 22.8684 38.3467 22.8026C24.4276 25.7552 18.5352 37.5962 20.4669 49.1279C21.182 53.3916 22.9987 57.6052 25.8621 61.0695C22.7695 52.1146 33.0228 24.519 44.3002 40.289C45.067 40.6175 49.6223 27.1719 40.8541 23.3051ZM23.5833 35.9602C23.727 35.7363 23.8644 35.5049 24.0009 35.2692C23.8654 35.5091 23.7279 35.7405 23.5833 35.9602ZM24.0906 35.1065C24.1713 34.9636 24.2467 34.8175 24.3263 34.6704C24.2519 34.8208 24.1713 34.9636 24.0906 35.1065ZM26.1594 30.6909C26.2391 30.5438 26.3135 30.3935 26.3951 30.2548C26.3145 30.3977 26.2391 30.5438 26.1594 30.6909ZM26.4849 30.0921C26.6204 29.8522 26.7631 29.6241 26.9015 29.3969C26.7621 29.6199 26.6204 29.8522 26.4849 30.0921Z" fill="white"/>
<path d="M84.2678 17.1159V23.6241H75.687V46.5476H67.5622V23.6241H58.9814V17.1159H84.2678ZM101.033 47.2109C91.7061 47.2109 86.1099 41.3245 86.1099 31.8732C86.1099 22.339 91.7061 16.4527 101.033 16.4527C110.36 16.4527 115.915 22.339 115.915 31.8732C115.915 41.3245 110.36 47.2109 101.033 47.2109ZM94.5249 31.8732C94.5249 37.4694 96.8877 40.7027 101.033 40.7027C105.22 40.7027 107.583 37.4694 107.583 31.8732C107.583 26.2356 105.22 22.9608 101.033 22.9608C96.8877 22.9608 94.5249 26.2356 94.5249 31.8732ZM144.976 35.6869C144.976 42.7339 140.001 47.2109 132.125 47.2109C124.249 47.2109 119.316 42.7339 119.316 35.6869V17.0745H127.483V35.6869C127.483 39.0446 129.224 40.7027 132.125 40.7027C135.069 40.7027 136.81 39.0446 136.81 35.6869V17.0745H144.976V35.6869ZM163.542 17.1159C169.553 17.1159 174.486 20.1005 174.486 25.904C174.486 29.8006 172.496 32.2048 168.973 33.1583C172.289 33.4899 173.823 35.0236 174.071 38.257L174.735 46.5476H166.568L166.112 39.7493C165.947 37.3036 164.827 36.516 162.009 36.516H157.656V46.5476H149.49V17.1159H163.542ZM157.656 29.9664H162.05C164.744 29.9664 166.195 28.8886 166.195 26.8159C166.195 24.7433 164.744 23.6241 162.05 23.6241H157.656V29.9664ZM178.636 17.1159H186.886L196.627 33.9459V17.1159H204.793V46.5476H196.295L186.803 30.5882V46.5476H178.636V17.1159ZM223.733 47.2109C214.406 47.2109 208.809 41.3245 208.809 31.8732C208.809 22.339 214.406 16.4527 223.733 16.4527C233.059 16.4527 238.614 22.339 238.614 31.8732C238.614 41.3245 233.059 47.2109 223.733 47.2109ZM217.224 31.8732C217.224 37.4694 219.587 40.7027 223.733 40.7027C227.919 40.7027 230.282 37.4694 230.282 31.8732C230.282 26.2356 227.919 22.9608 223.733 22.9608C219.587 22.9608 217.224 26.2356 217.224 31.8732ZM241.909 17.1159H250.075V46.5476H241.909V17.1159ZM262.444 36.3087C262.9 38.9202 264.724 40.5784 267.792 40.5784C269.989 40.5784 271.439 39.7078 271.398 38.0912C271.315 36.4745 269.989 35.6454 266.216 34.7749C258.796 33.0754 254.9 30.298 254.9 25.5723C254.9 19.9762 259.708 16.4527 267.087 16.4527C273.844 16.4527 278.528 20.5565 279.233 26.8159L271.232 27.1476C270.984 24.4531 269.367 22.8779 266.838 22.8779C264.517 22.8779 262.942 23.9971 263.149 25.7382C263.273 27.4792 265.346 28.2253 268.123 28.8057C275.46 30.1736 279.606 33.1583 279.606 37.9668C279.606 43.6459 274.673 47.045 267.667 47.045C259.998 47.045 254.775 43.0655 254.361 36.6818L262.444 36.3087ZM292.916 46.5476V17.1159H301.082V28.4741H309.746V17.1159H317.912V46.5476H309.746V35.0236H301.082V46.5476H292.916ZM321.583 46.5476L332.195 17.1159H341.439L352.051 46.5476H343.761L342.102 41.6976H331.49L329.832 46.5476H321.583ZM333.646 35.3553H339.988L336.838 26.0698L333.646 35.3553ZM367.318 47.2109C358.447 47.2109 352.519 40.7442 352.519 31.8732C352.519 23.0023 358.447 16.4527 367.318 16.4527C376.189 16.4527 382.075 23.0023 382.075 31.8732C382.075 36.889 380.168 41.2002 376.893 43.9361L380.997 48.9104H375.318L373.121 46.1745C371.38 46.8378 369.39 47.2109 367.318 47.2109ZM360.851 31.8732C360.851 36.4745 362.716 40.7027 367.318 40.7027C367.732 40.7027 368.147 40.6613 368.52 40.5369L364.582 35.7284H370.261L372.043 37.9668C373.204 36.4331 373.743 34.236 373.743 31.8732C373.743 27.2719 371.919 22.9608 367.318 22.9608C362.675 22.9608 360.851 27.2719 360.851 31.8732Z" fill="white"/>
</svg>
