<svg width="337" height="60" viewBox="0 0 337 60" fill="none" xmlns="http://www.w3.org/2000/svg">
<path d="M41.6236 27.1919C40.9863 24.5715 39.4995 22.2308 36.9291 21.0659C36.3618 20.8103 35.2218 20.622 34.4716 20.5251C34.0092 20.4632 33.6086 20.1727 33.4069 19.7556L23.9105 0C23.9105 0 12.411 40.5794 2.6537 19.7852C2.6537 19.7852 -4.24279 32.6238 4.1997 37.6495C4.76432 37.9858 6.07371 38.4701 7.79178 38.6019C11.9404 28.0448 20.9072 20.517 31.3743 20.8479C30.6806 21.0524 30.0057 21.3107 29.3416 21.5932C22.3161 24.5795 17.1108 30.711 15.4008 38.2307C13.7499 45.484 15.7342 53.305 20.1624 59.2131C17.377 49.8182 28.9679 21.8004 39.8141 38.6154C39.8141 38.6154 41.4811 34.2731 41.6504 33.5251C42.1021 31.5342 42.1371 29.2716 41.6316 27.1892H41.6263L41.6236 27.1919Z" fill="white"/>
<path d="M79.8253 14.5683V20.5376H71.1201V44H63.8244V20.5376H55.1607V14.5683H79.8253ZM91.0257 44.4974C83.9787 44.4974 79.3359 39.9376 79.3359 33.0149C79.3359 26.0923 83.9787 21.5324 91.0257 21.5324C98.1142 21.5324 102.757 26.0923 102.757 33.0149C102.757 39.9376 98.1142 44.4974 91.0257 44.4974ZM86.7146 33.0149C86.7146 36.953 88.2483 39.1914 91.0257 39.1914C93.8031 39.1914 95.3783 36.953 95.3783 33.0149C95.3783 29.0769 93.8031 26.8384 91.0257 26.8384C88.2483 26.8384 86.7146 29.0769 86.7146 33.0149ZM127.505 44H120.997L120.831 40.6423C119.629 43.4611 117.225 44.4974 114.406 44.4974C109.763 44.4974 106.862 41.3885 106.862 36.1654V22.0299H114.075V33.7196C114.075 37.0359 114.613 38.9013 116.935 38.9013C119.215 38.9013 120.293 37.0359 120.293 33.7196V22.0299H127.505V44ZM132.675 22.0299H139.639L139.764 26.5068C140.634 23.5636 142.334 22.0299 145.07 22.0299H147.06V27.253H145.028C141.339 27.253 139.888 28.8282 139.888 32.103V44H132.675V22.0299ZM150.406 22.0299H156.873L157.08 25.429C158.282 22.5688 160.687 21.5324 163.588 21.5324C168.273 21.5324 171.174 24.6414 171.174 29.8645V44H163.961V32.3102C163.961 28.994 163.423 27.1286 161.06 27.1286C158.697 27.1286 157.619 28.994 157.619 32.3102V44H150.406V22.0299ZM186.238 44.4974C179.191 44.4974 174.548 39.9376 174.548 33.0149C174.548 26.0923 179.191 21.5324 186.238 21.5324C193.327 21.5324 197.969 26.0923 197.969 33.0149C197.969 39.9376 193.327 44.4974 186.238 44.4974ZM181.927 33.0149C181.927 36.953 183.461 39.1914 186.238 39.1914C189.016 39.1914 190.591 36.953 190.591 33.0149C190.591 29.0769 189.016 26.8384 186.238 26.8384C183.461 26.8384 181.927 29.0769 181.927 33.0149ZM201.575 22.0299H208.788V44H201.575V22.0299ZM201.492 19.3769V14.5683H208.912V19.3769H201.492ZM226.943 29.2842C226.611 27.3773 225.119 26.2166 223.419 26.2166C221.72 26.2166 220.476 27.1286 220.559 28.538C220.642 29.9474 222.176 30.6107 224.166 30.9008C231.171 31.9786 234.156 33.7611 234.156 37.8649C234.156 42.259 230.093 44.4974 224 44.4974C217.16 44.4974 213.015 41.7201 212.642 36.9944L219.854 36.7043C220.228 38.6111 221.554 39.7303 223.792 39.7303C225.243 39.7303 226.819 39.1085 226.777 37.782C226.736 36.1654 224.995 35.7508 222.963 35.3778C216.207 34.1342 213.139 32.476 213.139 28.538C213.139 24.1025 216.911 21.491 223.627 21.491C229.554 21.491 233.368 24.2683 234.073 29.0354L226.943 29.2842ZM247.73 44V14.5683H255.025V26.2166H264.767V14.5683H272.063V44H264.767V32.1859H255.025V44H247.73ZM275.945 44L286.557 14.5683H294.475L305.087 44H297.874L295.967 38.4867H285.023L283.158 44H275.945ZM287.013 32.6833H294.019L290.536 22.4029L287.013 32.6833ZM320.462 44.6632C311.674 44.6632 305.953 38.1137 305.953 29.3256C305.953 20.5376 311.633 13.9051 320.462 13.9051C329.25 13.9051 334.971 20.5376 334.971 29.3256C334.971 34.4243 333.022 38.8184 329.706 41.5543L333.686 46.4457H328.38L326.1 43.6684C324.442 44.2902 322.493 44.6632 320.462 44.6632ZM313.415 29.3256C313.415 34.2585 315.529 38.694 320.462 38.694C321.001 38.694 321.498 38.6526 321.954 38.5282L317.975 33.5953H323.281L325.312 36.1654C326.763 34.5487 327.509 32.0201 327.509 29.3256C327.509 24.3512 325.395 19.8743 320.462 19.8743C315.488 19.8743 313.415 24.3512 313.415 29.3256Z" fill="white"/>
</svg>
