<svg width="244" height="48" viewBox="0 0 244 48" fill="none" xmlns="http://www.w3.org/2000/svg">
<path d="M41.7176 17.9844V14.2731H53.8186V17.9844H49.6891V32.5684H45.5858V17.9844H41.7176ZM62.9677 14.2731C65.1631 14.2731 66.9403 16.0504 66.9403 18.2458V28.5957C66.9403 30.7911 65.1631 32.5684 62.9677 32.5684H58.5768C56.3814 32.5684 54.6041 30.7911 54.6041 28.5957V18.1674C54.6041 16.0242 56.3552 14.2731 58.4984 14.2731H62.9677ZM62.8108 27.3673V19.4742C62.8108 18.6378 62.1313 17.9844 61.3211 17.9844H60.2234C59.4132 17.9844 58.7336 18.6378 58.7336 19.4742V27.3673C58.7336 28.2036 59.4132 28.857 60.2234 28.857H61.3211C62.1313 28.857 62.8108 28.2036 62.8108 27.3673ZM76.9521 27.0798V14.2731H81.0816V27.8377C81.0816 30.4513 78.9646 32.5684 76.3771 32.5684H73.3714C70.8101 32.5684 68.7454 30.5036 68.7454 27.9423V14.2731H72.8749V27.0798C72.8749 28.073 73.6067 28.857 74.5998 28.857H75.2271C76.2203 28.857 76.9521 28.073 76.9521 27.0798ZM92.6329 24.44C93.4692 24.9889 94.0704 25.8514 94.3056 27.0014L95.4033 32.5684H91.3L90.2022 27.7855C89.9409 26.9491 89.5227 26.5048 88.7125 26.5048H87.1705V32.5684H83.0671V14.2731H90.8034C92.9988 14.2731 94.776 16.0504 94.776 18.2458V20.9117C94.776 22.4537 93.9136 23.7866 92.6329 24.44ZM90.725 21.3037V19.4742C90.725 18.6378 90.0454 17.9844 89.2352 17.9844H87.1705V22.7935H89.2352C90.0454 22.7935 90.725 22.1401 90.725 21.3037ZM105.16 23.2639V14.2731H109.263V32.5684H107.094V32.5422L101.004 23.8651V32.5684H96.9008V14.2731H99.0701L105.16 23.2639ZM119.553 14.2731C121.749 14.2731 123.526 16.0504 123.526 18.2458V28.5957C123.526 30.7911 121.749 32.5684 119.553 32.5684H115.162C112.967 32.5684 111.19 30.7911 111.19 28.5957V18.1674C111.19 16.0242 112.941 14.2731 115.084 14.2731H119.553ZM119.396 27.3673V19.4742C119.396 18.6378 118.717 17.9844 117.907 17.9844H116.809C115.999 17.9844 115.319 18.6378 115.319 19.4742V27.3673C115.319 28.2036 115.999 28.857 116.809 28.857H117.907C118.717 28.857 119.396 28.2036 119.396 27.3673ZM129.565 32.5684H125.462V14.2731H129.565V32.5684ZM135.296 19.4742C135.296 21.6435 142.353 22.5844 142.353 26.74V28.5957C142.353 30.7911 140.576 32.5684 138.38 32.5684H131.376V28.857H136.786C137.622 28.857 138.276 28.2036 138.276 27.3673C138.276 24.6753 131.219 24.6491 131.219 19.9969V18.1674C131.219 16.0242 132.97 14.2731 135.113 14.2731H141.961V17.9844H136.786C135.95 17.9844 135.296 18.6378 135.296 19.4742ZM158.734 22.1923V14.2731H162.837V32.5684H158.734V25.8775H154.578V32.5684H150.475V14.2731H154.578V22.1923H158.734ZM169.259 14.2731H171.454L176.943 32.5684H172.552L172.134 30.7127H168.579L168.161 32.5684H163.77L169.259 14.2731ZM169.442 27.0014H171.298L170.357 22.9764L169.442 27.0014ZM185.863 14.2731C188.059 14.2731 189.836 16.0504 189.836 18.2458V28.5957C189.836 30.4513 188.555 32.0195 186.804 32.4638L188.843 35.8354H184.217L182.256 32.5684H181.472C179.277 32.5684 177.5 30.7911 177.5 28.5957V18.1674C177.5 16.0242 179.251 14.2731 181.394 14.2731H185.863ZM185.706 27.3673V19.4742C185.706 18.6378 185.027 17.9844 184.217 17.9844H183.119C182.309 17.9844 181.629 18.6378 181.629 19.4742V27.3673C181.629 28.2036 182.309 28.857 183.119 28.857H184.217C185.027 28.857 185.706 28.2036 185.706 27.3673Z" fill="white"/>
<path d="M26.398 16.8254L17.9878 3.6202C17.9878 3.6202 13.2971 31.4499 5.17276 18.4164C4.64296 18.1894 1.49559 27.4794 7.55382 30.1511C7.96001 30.3293 8.87565 30.5486 10.0434 30.5016C12.2108 22.5529 18.2556 15.9456 26.401 16.8247L26.398 16.8254Z" fill="white"/>
<path d="M28.2277 17.6696C27.9151 17.5316 27.2965 17.3679 26.4953 17.3224C16.8781 19.3625 12.8069 27.5438 14.1416 35.5115C14.6357 38.4574 15.8909 41.3687 17.8693 43.7623C15.7325 37.5751 22.8169 18.5084 30.6088 29.4044C31.1386 29.6314 34.286 20.3413 28.2277 17.6696ZM16.2948 26.4135C16.394 26.2588 16.489 26.0989 16.5833 25.9361C16.4897 26.1018 16.3947 26.2617 16.2948 26.4135ZM16.6453 25.8236C16.701 25.7249 16.7531 25.624 16.8082 25.5223C16.7567 25.6262 16.701 25.7249 16.6453 25.8236ZM18.0747 22.7728C18.1298 22.6711 18.1812 22.5672 18.2376 22.4714C18.1818 22.5701 18.1298 22.6711 18.0747 22.7728ZM18.2996 22.359C18.3932 22.1933 18.4918 22.0356 18.5874 21.8787C18.4911 22.0327 18.3932 22.1933 18.2996 22.359Z" fill="white"/>
<g filter="url(#filter0_d_166_36)">
<rect width="34.0827" height="28.6685" transform="translate(200.679 9.56836)" fill="#DCFC35"/>
<path d="M212.402 20.6342C212.402 22.5838 218.744 23.4294 218.744 27.1642V28.832C218.744 30.8051 217.146 32.4023 215.173 32.4023H208.878V29.0669H213.74C214.492 29.0669 215.079 28.4796 215.079 27.728C215.079 25.3086 208.737 25.2851 208.737 21.104V19.4597C208.737 17.5336 210.311 15.9598 212.237 15.9598H218.391V19.2953H213.74C212.989 19.2953 212.402 19.8825 212.402 20.6342ZM221.815 15.9598C223.788 15.9598 225.385 17.5571 225.385 19.5302V32.4023H221.674V20.6342C221.674 19.8825 221.063 19.2953 220.335 19.2953H219.842V15.9598H221.815Z" fill="#191D06"/>
</g>
<defs>
<filter id="filter0_d_166_36" x="191.504" y="0.392822" width="52.4338" height="47.0195" filterUnits="userSpaceOnUse" color-interpolation-filters="sRGB">
<feFlood flood-opacity="0" result="BackgroundImageFix"/>
<feColorMatrix in="SourceAlpha" type="matrix" values="0 0 0 0 0 0 0 0 0 0 0 0 0 0 0 0 0 0 127 0" result="hardAlpha"/>
<feOffset/>
<feGaussianBlur stdDeviation="4.58777"/>
<feComposite in2="hardAlpha" operator="out"/>
<feColorMatrix type="matrix" values="0 0 0 0 0.862745 0 0 0 0 0.988235 0 0 0 0 0.207843 0 0 0 0.25 0"/>
<feBlend mode="normal" in2="BackgroundImageFix" result="effect1_dropShadow_166_36"/>
<feBlend mode="normal" in="SourceGraphic" in2="effect1_dropShadow_166_36" result="shape"/>
</filter>
</defs>
</svg>
