<svg width="538" height="85" viewBox="0 0 538 85" fill="none" xmlns="http://www.w3.org/2000/svg">
<path d="M59.2597 38.7133C58.3525 34.9825 56.2357 31.6501 52.5762 29.9916C51.7685 29.6277 50.1455 29.3596 49.0775 29.2217C48.4191 29.1336 47.8487 28.7199 47.5616 28.1262L34.0415 0C34.0415 0 17.6695 57.7731 3.77809 28.1684C3.77809 28.1684 -6.04048 46.4468 5.97913 53.6019C6.78299 54.0807 8.64718 54.7701 11.0932 54.9578C16.9997 39.9275 29.7657 29.2102 44.6678 29.6813C43.6802 29.9725 42.7193 30.3402 41.7739 30.7424C31.7715 34.994 24.3607 43.7234 21.9262 54.4292C19.5758 64.7558 22.4008 75.8906 28.7054 84.3021C24.7397 70.9265 41.2418 31.0373 56.6835 54.977C56.6835 54.977 59.0568 48.7948 59.298 47.7299C59.9411 44.8955 59.9908 41.6742 59.2712 38.7095H59.2636L59.2597 38.7133Z" fill="white"/>
<path d="M110.236 20.2844V29.572H97.9909V62.2859H86.3961V29.572H74.1506V20.2844H110.236ZM134.162 63.2324C120.851 63.2324 112.865 54.8321 112.865 41.3443C112.865 27.7382 120.851 19.3379 134.162 19.3379C147.472 19.3379 155.399 27.7382 155.399 41.3443C155.399 54.8321 147.472 63.2324 134.162 63.2324ZM124.874 41.3443C124.874 49.3305 128.246 53.9447 134.162 53.9447C140.137 53.9447 143.509 49.3305 143.509 41.3443C143.509 33.2989 140.137 28.6255 134.162 28.6255C128.246 28.6255 124.874 33.2989 124.874 41.3443ZM196.872 46.7867C196.872 56.8434 189.773 63.2324 178.533 63.2324C167.293 63.2324 160.254 56.8434 160.254 46.7867V20.2252H171.908V46.7867C171.908 51.5785 174.392 53.9447 178.533 53.9447C182.733 53.9447 185.218 51.5785 185.218 46.7867V20.2252H196.872V46.7867ZM223.368 20.2844C231.946 20.2844 238.985 24.5437 238.985 32.8257C238.985 38.3864 236.146 41.8175 231.117 43.1782C235.85 43.6514 238.039 45.8402 238.394 50.4545L239.34 62.2859H227.686L227.036 52.5841C226.799 49.0939 225.202 47.9699 221.179 47.9699H214.968V62.2859H203.314V20.2844H223.368ZM214.968 38.6231H221.238C225.083 38.6231 227.154 37.085 227.154 34.1271C227.154 31.1693 225.083 29.572 221.238 29.572H214.968V38.6231ZM244.908 20.2844H256.681L270.583 44.3021V20.2844H282.236V62.2859H270.109L256.562 39.5104V62.2859H244.908V20.2844ZM309.264 63.2324C295.954 63.2324 287.968 54.8321 287.968 41.3443C287.968 27.7382 295.954 19.3379 309.264 19.3379C322.575 19.3379 330.502 27.7382 330.502 41.3443C330.502 54.8321 322.575 63.2324 309.264 63.2324ZM299.977 41.3443C299.977 49.3305 303.349 53.9447 309.264 53.9447C315.239 53.9447 318.611 49.3305 318.611 41.3443C318.611 33.2989 315.239 28.6255 309.264 28.6255C303.349 28.6255 299.977 33.2989 299.977 41.3443ZM335.204 20.2844H346.858V62.2859H335.204V20.2844ZM364.509 47.6741C365.16 51.401 367.763 53.7673 372.14 53.7673C375.276 53.7673 377.346 52.525 377.287 50.2178C377.169 47.9107 375.276 46.7276 369.892 45.4853C359.303 43.0598 353.743 39.0963 353.743 32.3524C353.743 24.3662 360.605 19.3379 371.135 19.3379C380.777 19.3379 387.462 25.1944 388.468 34.1271L377.05 34.6004C376.696 30.7552 374.388 28.5072 370.78 28.5072C367.467 28.5072 365.219 30.1044 365.515 32.589C365.692 35.0736 368.65 36.1385 372.614 36.9667C383.084 38.9188 389 43.1782 389 50.0404C389 58.1449 381.96 62.9958 371.963 62.9958C361.019 62.9958 353.565 57.3167 352.974 48.2065L364.509 47.6741ZM407.995 62.2859V20.2844H419.649V36.4934H432.012V20.2844H443.666V62.2859H432.012V45.8402H419.649V62.2859H407.995ZM448.905 62.2859L464.05 20.2844H477.242L492.386 62.2859H480.555L478.188 55.3645H463.044L460.678 62.2859H448.905ZM466.12 46.3135H475.171L470.675 33.0623L466.12 46.3135ZM514.172 63.2324C501.513 63.2324 493.053 54.0039 493.053 41.3443C493.053 28.6847 501.513 19.3379 514.172 19.3379C526.832 19.3379 535.232 28.6847 535.232 41.3443C535.232 48.5023 532.511 54.6546 527.838 58.559L533.694 65.6578H525.59L522.454 61.7535C519.97 62.7 517.13 63.2324 514.172 63.2324ZM504.944 41.3443C504.944 47.9107 507.606 53.9447 514.172 53.9447C514.764 53.9447 515.355 53.8856 515.888 53.7081L510.268 46.8459H518.373L520.916 50.0404C522.573 47.8516 523.342 44.7162 523.342 41.3443C523.342 34.7779 520.739 28.6255 514.172 28.6255C507.547 28.6255 504.944 34.7779 504.944 41.3443Z" fill="white"/>
</svg>
