<svg width="667" height="147" viewBox="0 0 667 147" fill="none" xmlns="http://www.w3.org/2000/svg">
<path d="M130.295 37.5852H173.809V50.9307H158.959V103.373H144.204V50.9307H130.295V37.5852ZM206.708 37.5852C208.713 37.5852 210.561 37.9611 212.253 38.713C214.007 39.4649 215.511 40.4987 216.764 41.8144C218.08 43.0675 219.113 44.5712 219.865 46.3256C220.617 48.0173 220.993 49.8656 220.993 51.8706V89.0877C220.993 91.03 220.617 92.8783 219.865 94.6327C219.113 96.387 218.08 97.9221 216.764 99.2378C215.511 100.491 214.007 101.493 212.253 102.245C210.561 102.997 208.713 103.373 206.708 103.373H190.919C188.976 103.373 187.128 102.997 185.374 102.245C183.619 101.493 182.084 100.491 180.768 99.2378C179.515 97.9221 178.513 96.387 177.761 94.6327C177.009 92.8783 176.633 91.03 176.633 89.0877V51.5886C176.633 49.6463 177.009 47.8293 177.761 46.1376C178.513 44.4459 179.515 42.9735 180.768 41.7204C182.022 40.4047 183.494 39.4022 185.186 38.713C186.877 37.9611 188.694 37.5852 190.637 37.5852H206.708ZM206.144 56.2877C206.144 54.784 205.611 53.5309 204.546 52.5284C203.481 51.4633 202.228 50.9307 200.787 50.9307H196.839C195.398 50.9307 194.145 51.4633 193.08 52.5284C192.015 53.5309 191.482 54.784 191.482 56.2877V84.6705C191.482 86.1742 192.015 87.4587 193.08 88.5238C194.145 89.5263 195.398 90.0275 196.839 90.0275H200.787C202.228 90.0275 203.481 89.5263 204.546 88.5238C205.611 87.4587 206.144 86.1742 206.144 84.6705V56.2877ZM256.994 37.5852H271.844V86.3622C271.844 88.6804 271.405 90.8734 270.528 92.941C269.651 95.0086 268.429 96.8256 266.862 98.392C265.359 99.9583 263.573 101.18 261.505 102.057C259.438 102.934 257.245 103.373 254.927 103.373H244.119C241.8 103.373 239.639 102.934 237.634 102.057C235.629 101.18 233.875 99.9897 232.371 98.486C230.867 96.9822 229.677 95.2279 228.799 93.2229C227.922 91.218 227.484 89.0564 227.484 86.7381V37.5852H242.333V83.6367C242.333 85.4537 242.897 86.9887 244.025 88.2418C245.215 89.4323 246.719 90.0275 248.536 90.0275H250.791C252.608 90.0275 254.081 89.4323 255.209 88.2418C256.399 86.9887 256.994 85.4537 256.994 83.6367V37.5852ZM313.381 74.1445C314.885 75.1469 316.138 76.4314 317.14 77.9977C318.205 79.5015 318.957 81.2871 319.396 83.3547L323.343 103.373H308.588L304.641 86.1742C304.139 84.6705 303.481 83.5427 302.667 82.7909C301.852 81.9763 300.725 81.5691 299.283 81.5691H293.739V103.373H278.983V37.5852H306.802C308.807 37.5852 310.655 37.9611 312.347 38.713C314.101 39.4649 315.605 40.4987 316.858 41.8144C318.174 43.0675 319.208 44.5712 319.96 46.3256C320.712 48.0173 321.087 49.8656 321.087 51.8706V61.4568C321.087 64.2763 320.367 66.8138 318.926 69.0694C317.547 71.2623 315.699 72.954 313.381 74.1445ZM306.52 56.2877C306.52 54.784 305.988 53.5309 304.922 52.5284C303.857 51.4633 302.604 50.9307 301.163 50.9307H293.739V68.2235H301.163C302.604 68.2235 303.857 67.7223 304.922 66.7198C305.988 65.6547 306.52 64.3703 306.52 62.8665V56.2877ZM358.426 37.5852H373.182V103.373H365.381V103.279L343.483 72.0768V103.373H328.728V37.5852H336.529L358.426 69.9152V37.5852ZM410.184 37.5852C412.189 37.5852 414.037 37.9611 415.729 38.713C417.483 39.4649 418.987 40.4987 420.24 41.8144C421.556 43.0675 422.589 44.5712 423.341 46.3256C424.093 48.0173 424.469 49.8656 424.469 51.8706V89.0877C424.469 91.03 424.093 92.8783 423.341 94.6327C422.589 96.387 421.556 97.9221 420.24 99.2378C418.987 100.491 417.483 101.493 415.729 102.245C414.037 102.997 412.189 103.373 410.184 103.373H394.395C392.452 103.373 390.604 102.997 388.85 102.245C387.095 101.493 385.56 100.491 384.245 99.2378C382.991 97.9221 381.989 96.387 381.237 94.6327C380.485 92.8783 380.109 91.03 380.109 89.0877V51.5886C380.109 49.6463 380.485 47.8293 381.237 46.1376C381.989 44.4459 382.991 42.9735 384.245 41.7204C385.498 40.4047 386.97 39.4022 388.662 38.713C390.353 37.9611 392.17 37.5852 394.113 37.5852H410.184ZM409.62 56.2877C409.62 54.784 409.087 53.5309 408.022 52.5284C406.957 51.4633 405.704 50.9307 404.263 50.9307H400.316C398.874 50.9307 397.621 51.4633 396.556 52.5284C395.491 53.5309 394.959 54.784 394.959 56.2877V84.6705C394.959 86.1742 395.491 87.4587 396.556 88.5238C397.621 89.5263 398.874 90.0275 400.316 90.0275H404.263C405.704 90.0275 406.957 89.5263 408.022 88.5238C409.087 87.4587 409.62 86.1742 409.62 84.6705V56.2877ZM431.43 103.373V37.5852H446.185V103.373H431.43ZM466.794 56.2877C466.794 57.6035 467.42 58.8253 468.673 59.9531C469.926 61.0182 471.493 62.1147 473.372 63.2425C475.252 64.3076 477.288 65.4667 479.481 66.7198C481.674 67.9103 483.71 69.2574 485.59 70.7611C487.47 72.2648 489.036 73.9565 490.289 75.8361C491.542 77.7158 492.169 79.9087 492.169 82.4149V89.0877C492.169 91.03 491.793 92.8783 491.041 94.6327C490.289 96.387 489.255 97.9221 487.94 99.2378C486.687 100.491 485.183 101.493 483.428 102.245C481.737 102.997 479.888 103.373 477.884 103.373H452.696V90.0275H472.151C473.654 90.0275 474.907 89.5263 475.91 88.5238C476.975 87.4587 477.508 86.1742 477.508 84.6705C477.508 83.0415 476.881 81.6631 475.628 80.5353C474.375 79.3448 472.808 78.2484 470.929 77.2459C469.049 76.1807 467.013 75.1156 464.82 74.0505C462.627 72.9853 460.591 71.7636 458.711 70.3851C456.831 68.9441 455.265 67.2524 454.012 65.3101C452.759 63.3678 452.132 60.9869 452.132 58.1674V51.5886C452.132 49.6463 452.508 47.8293 453.26 46.1376C454.012 44.4459 455.014 42.9735 456.268 41.7204C457.521 40.4047 458.993 39.4022 460.685 38.713C462.376 37.9611 464.193 37.5852 466.136 37.5852H490.759V50.9307H472.151C470.647 50.9307 469.362 51.4633 468.297 52.5284C467.295 53.5309 466.794 54.784 466.794 56.2877ZM551.072 37.5852H565.828V103.373H551.072V79.3135H536.129V103.373H521.374V37.5852H536.129V66.0619H551.072V37.5852ZM596.815 37.5852L616.551 103.373H600.762L599.258 96.7003H586.477L584.973 103.373H569.184L588.92 37.5852H596.815ZM596.251 83.3547L592.868 68.8814L589.578 83.3547H596.251ZM648.628 37.5852C650.633 37.5852 652.481 37.9611 654.173 38.713C655.927 39.4649 657.431 40.4987 658.684 41.8144C660 43.0675 661.034 44.5712 661.785 46.3256C662.537 48.0173 662.913 49.8656 662.913 51.8706V89.0877C662.913 92.4711 661.879 95.4472 659.812 98.016C657.807 100.522 655.207 102.183 652.011 102.997L659.342 115.121H642.707L635.658 103.373H632.839C630.897 103.373 629.048 102.997 627.294 102.245C625.539 101.493 624.004 100.491 622.689 99.2378C621.436 97.9221 620.433 96.387 619.681 94.6327C618.929 92.8783 618.553 91.03 618.553 89.0877V51.5886C618.553 49.6463 618.929 47.8293 619.681 46.1376C620.433 44.4459 621.436 42.9735 622.689 41.7204C623.942 40.4047 625.414 39.4022 627.106 38.713C628.798 37.9611 630.615 37.5852 632.557 37.5852H648.628ZM648.064 56.2877C648.064 54.784 647.531 53.5309 646.466 52.5284C645.401 51.4633 644.148 50.9307 642.707 50.9307H638.76C637.319 50.9307 636.066 51.4633 635 52.5284C633.935 53.5309 633.403 54.784 633.403 56.2877V84.6705C633.403 86.1742 633.935 87.4587 635 88.5238C636.066 89.5263 637.319 90.0275 638.76 90.0275H642.707C644.148 90.0275 645.401 89.5263 646.466 88.5238C647.531 87.4587 648.064 86.1742 648.064 84.6705V56.2877Z" fill="white"/>
<path d="M87.5273 50.5913L59.6417 6.80712C59.6417 6.80712 44.0887 99.0813 17.1512 55.8664C15.3946 55.1139 4.95889 85.9166 25.046 94.7752C26.3928 95.366 29.4288 96.0929 33.3006 95.937C40.4869 69.5818 60.5296 47.6743 87.5371 50.5891L87.5273 50.5913Z" fill="white"/>
<path d="M93.5942 53.3895C92.5575 52.932 90.5064 52.389 87.8501 52.2383C55.9624 59.0025 42.4635 86.1291 46.8889 112.547C48.5272 122.315 52.6891 131.968 59.2489 139.905C52.1638 119.39 75.6534 56.1704 101.489 92.2982C103.246 93.0508 113.681 62.248 93.5942 53.3895ZM54.0283 82.3812C54.3574 81.8683 54.6723 81.3382 54.985 80.7984C54.6745 81.3479 54.3596 81.878 54.0283 82.3812ZM55.1905 80.4256C55.3753 80.0983 55.548 79.7635 55.7305 79.4265C55.56 79.771 55.3753 80.0983 55.1905 80.4256ZM59.93 70.3098C60.1125 69.9728 60.283 69.6284 60.47 69.3107C60.2852 69.638 60.1125 69.9728 59.93 70.3098ZM60.6755 68.9379C60.986 68.3885 61.3129 67.8658 61.63 67.3454C61.3107 67.8561 60.986 68.3885 60.6755 68.9379Z" fill="white"/>
</svg>
