<svg width="890" height="321" viewBox="0 0 890 321" fill="none" xmlns="http://www.w3.org/2000/svg">
<g clip-path="url(#clip0_1093_2)">
<path d="M152.62 99.651C150.283 90.0478 144.831 81.4699 135.407 77.2007C133.327 76.264 129.147 75.5739 126.396 75.2189C124.7 74.9921 123.231 73.9273 122.492 72.3991L87.6717 0C87.6717 0 45.5068 148.712 9.73023 72.5075C9.73023 72.5075 -15.5569 119.558 15.3989 137.975C17.4692 139.208 22.2703 140.982 28.5699 141.466C43.7816 102.777 76.6598 75.1893 115.039 76.4021C112.496 77.1514 110.021 78.0979 107.586 79.1332C81.8256 90.0773 62.7395 112.547 56.4695 140.105C50.4164 166.686 57.692 195.348 73.9289 217C63.7155 182.57 106.216 79.8924 145.985 141.515C145.985 141.515 152.097 125.601 152.718 122.861C154.375 115.564 154.503 107.272 152.649 99.6412H152.63L152.62 99.651Z" fill="white"/>
<path d="M193.819 65.5972H211.486V77H181.212V20.7892H193.819V65.5972ZM227.069 65.5972H244.735V77H214.462V20.7892H243.852V32.192H227.069V43.8357H237.026V55.2384H227.069V65.5972ZM269.039 20.7892L285.903 77H272.412L271.127 71.2986H260.206L258.922 77H245.431L262.294 20.7892H269.039ZM268.558 59.8959L265.667 47.5295L262.856 59.8959H268.558ZM306.484 57.4868V46.0841H325.114V74.7516C322.33 75.8223 319.332 76.652 316.12 77.2409C312.908 77.8298 309.75 78.1242 306.645 78.1242C304.129 78.1242 301.72 77.9101 299.418 77.4818C297.169 77.0535 295.162 76.3844 293.395 75.4743C291.682 74.5107 290.317 73.3062 289.3 71.8607C288.283 70.4153 287.774 68.6487 287.774 66.5609V31.389C287.774 29.9436 288.042 28.5784 288.577 27.2936C289.166 26.0088 289.915 24.9114 290.826 24.0013C291.789 23.0377 292.913 22.2882 294.198 21.7529C295.483 21.164 296.848 20.8695 298.294 20.8695H322.866V32.2723H304.477C303.299 32.2723 302.309 32.6738 301.506 33.4768C300.703 34.2798 300.301 35.2702 300.301 36.448V60.1368C300.301 62.2246 301.024 63.8574 302.469 65.0351C303.915 66.2129 305.788 66.8018 308.09 66.8018C309.536 66.8018 311.195 66.5073 313.069 65.9185V57.4868H306.484ZM355.413 20.7892H368.101V62.4655C368.101 64.4463 367.726 66.32 366.977 68.0866C366.227 69.8532 365.183 71.4057 363.845 72.744C362.56 74.0824 361.034 75.1263 359.268 75.8758C357.501 76.6253 355.627 77 353.647 77H344.412C342.431 77 340.584 76.6253 338.871 75.8758C337.158 75.1263 335.659 74.1092 334.374 72.8243C333.09 71.5395 332.072 70.0406 331.323 68.3275C330.574 66.6144 330.199 64.7675 330.199 62.7867V20.7892H342.886V60.1368C342.886 61.6893 343.368 63.0008 344.332 64.0715C345.349 65.0887 346.634 65.5972 348.186 65.5972H350.113C351.666 65.5972 352.924 65.0887 353.888 64.0715C354.905 63.0008 355.413 61.6893 355.413 60.1368V20.7892ZM386.809 65.5972H404.475V77H374.201V20.7892H403.591V32.192H386.809V43.8357H396.766V55.2384H386.809V65.5972ZM453.994 20.7892C455.707 20.7892 457.286 21.1104 458.731 21.7529C460.23 22.3953 461.515 23.2786 462.586 24.4028C463.71 25.4735 464.593 26.7583 465.236 28.2572C465.878 29.7027 466.199 31.2819 466.199 32.995V64.7942C466.199 66.4538 465.878 68.033 465.236 69.532C464.593 71.031 463.71 72.3425 462.586 73.4668C461.515 74.5374 460.23 75.394 458.731 76.0364C457.286 76.6788 455.707 77 453.994 77H440.503C438.843 77 437.264 76.6788 435.765 76.0364C434.266 75.394 432.955 74.5374 431.83 73.4668C430.76 72.3425 429.903 71.031 429.261 69.532C428.618 68.033 428.297 66.4538 428.297 64.7942V32.7541C428.297 31.0945 428.618 29.5421 429.261 28.0966C429.903 26.6512 430.76 25.3932 431.83 24.3225C432.901 23.1983 434.159 22.3417 435.605 21.7529C437.05 21.1104 438.603 20.7892 440.262 20.7892H453.994ZM453.512 36.7692C453.512 35.4843 453.057 34.4137 452.147 33.5571C451.237 32.647 450.166 32.192 448.935 32.192H445.562C444.331 32.192 443.26 32.647 442.35 33.5571C441.44 34.4137 440.985 35.4843 440.985 36.7692V61.0201C440.985 62.3049 441.44 63.4023 442.35 64.3124C443.26 65.169 444.331 65.5972 445.562 65.5972H448.935C450.166 65.5972 451.237 65.169 452.147 64.3124C453.057 63.4023 453.512 62.3049 453.512 61.0201V36.7692ZM472.147 20.7892H501.537V32.192H484.754V47.2083H494.711V58.6111H484.754V77H472.147V20.7892ZM537.687 65.5972H555.353V77H525.079V20.7892H537.687V65.5972ZM570.936 65.5972H588.603V77H558.329V20.7892H587.719V32.192H570.936V43.8357H580.894V55.2384H570.936V65.5972ZM611.221 57.4868V46.0841H629.85V74.7516C627.067 75.8223 624.069 76.652 620.857 77.2409C617.645 77.8298 614.486 78.1242 611.381 78.1242C608.865 78.1242 606.456 77.9101 604.154 77.4818C601.906 77.0535 599.898 76.3844 598.131 75.4743C596.418 74.5107 595.053 73.3062 594.036 71.8607C593.019 70.4153 592.51 68.6487 592.51 66.5609V31.389C592.51 29.9436 592.778 28.5784 593.313 27.2936C593.902 26.0088 594.652 24.9114 595.562 24.0013C596.525 23.0377 597.65 22.2882 598.934 21.7529C600.219 21.164 601.584 20.8695 603.03 20.8695H627.602V32.2723H609.213C608.035 32.2723 607.045 32.6738 606.242 33.4768C605.439 34.2798 605.037 35.2702 605.037 36.448V60.1368C605.037 62.2246 605.76 63.8574 607.205 65.0351C608.651 66.2129 610.525 66.8018 612.827 66.8018C614.272 66.8018 615.932 66.5073 617.805 65.9185V57.4868H611.221ZM647.944 65.5972H665.61V77H635.337V20.7892H664.727V32.192H647.944V43.8357H657.901V55.2384H647.944V65.5972ZM695.295 20.7892H707.902V77H701.237V76.9197L682.527 50.2597V77H669.919V20.7892H676.584L695.295 48.4128V20.7892ZM739.999 20.7892C741.712 20.7892 743.291 21.1104 744.737 21.7529C746.236 22.3953 747.521 23.2786 748.591 24.4028C749.715 25.4735 750.599 26.7583 751.241 28.2572C751.884 29.7027 752.205 31.2819 752.205 32.995V64.7942C752.205 66.4538 751.884 68.033 751.241 69.532C750.599 71.031 749.715 72.3425 748.591 73.4668C747.521 74.5374 746.236 75.394 744.737 76.0364C743.291 76.6788 741.712 77 739.999 77H714.383V20.7892H739.999ZM739.678 36.7692C739.678 35.4843 739.223 34.4137 738.313 33.5571C737.403 32.647 736.332 32.192 735.101 32.192H726.99V65.5972H735.101C736.332 65.5972 737.403 65.169 738.313 64.3124C739.223 63.4023 739.678 62.3049 739.678 61.0201V36.7692ZM769.144 36.7692C769.144 37.8934 769.679 38.9373 770.75 39.9009C771.821 40.811 773.159 41.7478 774.765 42.7114C776.371 43.6215 778.111 44.6119 779.985 45.6826C781.858 46.6997 783.598 47.8507 785.204 49.1355C786.81 50.4203 788.149 51.8658 789.219 53.4718C790.29 55.0778 790.825 56.9515 790.825 59.0929V64.7942C790.825 66.4538 790.504 68.033 789.862 69.532C789.219 71.031 788.336 72.3425 787.212 73.4668C786.141 74.5374 784.856 75.394 783.357 76.0364C781.912 76.6788 780.333 77 778.619 77H757.099V65.5972H773.721C775.006 65.5972 776.077 65.169 776.933 64.3124C777.843 63.4023 778.298 62.3049 778.298 61.0201C778.298 59.6282 777.763 58.4504 776.692 57.4868C775.622 56.4697 774.283 55.5328 772.677 54.6763C771.071 53.7662 769.331 52.8561 767.458 51.9461C765.584 51.036 763.844 49.9921 762.238 48.8143C760.632 47.583 759.294 46.1376 758.223 44.4781C757.152 42.8185 756.617 40.7842 756.617 38.3752V32.7541C756.617 31.0945 756.938 29.5421 757.581 28.0966C758.223 26.6512 759.08 25.3932 760.15 24.3225C761.221 23.1983 762.479 22.3417 763.924 21.7529C765.37 21.1104 766.922 20.7892 768.582 20.7892H789.621V32.192H773.721C772.436 32.192 771.339 32.647 770.429 33.5571C769.572 34.4137 769.144 35.4843 769.144 36.7692Z" fill="white"/>
<path d="M177.501 120.352V102.628H235.291V120.352H215.57V190H195.974V120.352H177.501ZM278.984 102.628C289.468 102.628 297.956 111.116 297.956 121.6V171.028C297.956 181.512 289.468 190 278.984 190H258.014C247.53 190 239.042 181.512 239.042 171.028V121.226C239.042 110.991 247.405 102.628 257.64 102.628H278.984ZM278.235 165.161V127.467C278.235 123.473 274.989 120.352 271.12 120.352H265.878C262.008 120.352 258.763 123.473 258.763 127.467V165.161C258.763 169.156 262.008 172.276 265.878 172.276H271.12C274.989 172.276 278.235 169.156 278.235 165.161ZM345.768 163.788V102.628H365.489V167.408C365.489 179.89 355.379 190 343.022 190H328.668C316.436 190 306.576 180.139 306.576 167.907V102.628H326.297V163.788C326.297 168.532 329.792 172.276 334.535 172.276H337.53C342.273 172.276 345.768 168.532 345.768 163.788ZM420.654 151.182C424.649 153.803 427.519 157.922 428.643 163.414L433.885 190H414.289L409.046 167.159C407.798 163.164 405.801 161.043 401.932 161.043H394.568V190H374.971V102.628H411.917C422.402 102.628 430.889 111.116 430.889 121.6V134.332C430.889 141.696 426.77 148.062 420.654 151.182ZM411.543 136.204V127.467C411.543 123.473 408.298 120.352 404.428 120.352H394.568V143.319H404.428C408.298 143.319 411.543 140.198 411.543 136.204ZM480.479 145.565V102.628H500.075V190H489.715V189.875L460.633 148.436V190H441.037V102.628H451.396L480.479 145.565ZM549.217 102.628C559.701 102.628 568.189 111.116 568.189 121.6V171.028C568.189 181.512 559.701 190 549.217 190H528.247C517.763 190 509.275 181.512 509.275 171.028V121.226C509.275 110.991 517.638 102.628 527.873 102.628H549.217ZM548.468 165.161V127.467C548.468 123.473 545.222 120.352 541.353 120.352H536.111C532.241 120.352 528.996 123.473 528.996 127.467V165.161C528.996 169.156 532.241 172.276 536.111 172.276H541.353C545.222 172.276 548.468 169.156 548.468 165.161ZM597.029 190H577.433V102.628H597.029V190ZM624.399 127.467C624.399 137.827 658.1 142.32 658.1 162.166V171.028C658.1 181.512 649.612 190 639.127 190H605.677V172.276H631.514C635.508 172.276 638.628 169.156 638.628 165.161C638.628 152.305 604.928 152.181 604.928 129.963V121.226C604.928 110.991 613.29 102.628 623.525 102.628H656.227V120.352H631.514C627.52 120.352 624.399 123.473 624.399 127.467ZM736.328 140.448V102.628H755.925V190H736.328V158.047H716.483V190H696.886V102.628H716.483V140.448H736.328ZM786.594 102.628H797.078L823.29 190H802.32L800.323 181.138H783.348L781.351 190H760.382L786.594 102.628ZM787.467 163.414H796.329L791.836 144.192L787.467 163.414ZM865.89 102.628C876.375 102.628 884.862 111.116 884.862 121.6V171.028C884.862 179.89 878.746 187.379 870.384 189.501L880.119 205.602H858.027L848.665 190H844.921C834.436 190 825.949 181.512 825.949 171.028V121.226C825.949 110.991 834.312 102.628 844.547 102.628H865.89ZM865.141 165.161V127.467C865.141 123.473 861.896 120.352 858.027 120.352H852.784C848.915 120.352 845.67 123.473 845.67 127.467V165.161C845.67 169.156 848.915 172.276 852.784 172.276H858.027C861.896 172.276 865.141 169.156 865.141 165.161Z" fill="white"/>
<g filter="url(#filter0_d_1093_2)">
<rect width="355.481" height="92" transform="translate(534.519 229)" fill="#DCFC35"/>
<path d="M601.088 263.485C601.088 269.7 621.305 272.396 621.305 284.302V289.618C621.305 295.908 616.213 301 609.924 301H589.856V290.367H605.356C607.752 290.367 609.624 288.495 609.624 286.099C609.624 278.386 589.407 278.312 589.407 264.983V259.741C589.407 253.601 594.424 248.584 600.564 248.584H620.182V259.217H605.356C602.96 259.217 601.088 261.089 601.088 263.485ZM638.209 248.584H644.499L660.224 301H647.644L646.446 295.684H636.262L635.064 301H622.485L638.209 248.584ZM638.733 285.051H644.05L641.354 273.519L638.733 285.051ZM674.684 301H662.928V248.584H674.684V301ZM691.104 263.485C691.104 269.7 711.321 272.396 711.321 284.302V289.618C711.321 295.908 706.23 301 699.94 301H679.872V290.367H695.372C697.768 290.367 699.64 288.495 699.64 286.099C699.64 278.386 679.423 278.312 679.423 264.983V259.741C679.423 253.601 684.44 248.584 690.58 248.584H710.198V259.217H695.372C692.976 259.217 691.104 261.089 691.104 263.485ZM739.308 248.584C745.598 248.584 750.689 253.676 750.689 259.966V289.618C750.689 295.908 745.598 301 739.308 301H726.728C720.438 301 715.346 295.908 715.346 289.618V259.741C715.346 253.601 720.363 248.584 726.503 248.584H739.308ZM738.858 286.099V263.485C738.858 261.089 736.912 259.217 734.59 259.217H731.445C729.124 259.217 727.177 261.089 727.177 263.485V286.099C727.177 288.495 729.124 290.367 731.445 290.367H734.59C736.912 290.367 738.858 288.495 738.858 286.099ZM779.897 274.343V248.584H791.653V301H785.438V300.925L767.991 276.065V301H756.235V248.584H762.45L779.897 274.343ZM821.658 248.584C827.948 248.584 833.04 253.676 833.04 259.966V301H821.209V263.485C821.209 261.089 819.262 259.217 816.941 259.217H815.368V248.584H821.658Z" fill="#191D06"/>
</g>
</g>
<defs>
<filter id="filter0_d_1093_2" x="505.269" y="199.75" width="413.981" height="150.5" filterUnits="userSpaceOnUse" color-interpolation-filters="sRGB">
<feFlood flood-opacity="0" result="BackgroundImageFix"/>
<feColorMatrix in="SourceAlpha" type="matrix" values="0 0 0 0 0 0 0 0 0 0 0 0 0 0 0 0 0 0 127 0" result="hardAlpha"/>
<feOffset/>
<feGaussianBlur stdDeviation="14.6249"/>
<feComposite in2="hardAlpha" operator="out"/>
<feColorMatrix type="matrix" values="0 0 0 0 0.862745 0 0 0 0 0.988235 0 0 0 0 0.207843 0 0 0 0.25 0"/>
<feBlend mode="normal" in2="BackgroundImageFix" result="effect1_dropShadow_1093_2"/>
<feBlend mode="normal" in="SourceGraphic" in2="effect1_dropShadow_1093_2" result="shape"/>
</filter>
<clipPath id="clip0_1093_2">
<rect width="890" height="321" fill="white"/>
</clipPath>
</defs>
</svg>
