<svg width="599" height="212" viewBox="0 0 599 212" fill="none" xmlns="http://www.w3.org/2000/svg">
<path d="M101.245 66.6887C99.6952 60.3181 96.0786 54.6277 89.8264 51.7956C88.4464 51.1742 85.6735 50.7164 83.8488 50.4809C82.724 50.3305 81.7495 49.6241 81.259 48.6103L58.1598 0.582031C58.1598 0.582031 30.1884 99.2351 6.45486 48.6822C6.45486 48.6822 -10.3202 79.8943 10.2153 92.1123C11.5887 92.9299 14.7737 94.1072 18.9527 94.4277C29.0439 68.7621 50.8547 50.4613 76.3148 51.2658C74.6275 51.7629 72.9859 52.3908 71.3706 53.0775C54.2816 60.3377 41.6203 75.2439 37.4608 93.5251C33.4453 111.159 38.2718 130.173 49.0431 144.536C42.2677 121.696 70.4615 53.5812 96.8437 94.4604C96.8437 94.4604 100.899 83.9038 101.311 82.0855C102.409 77.2454 102.494 71.7446 101.265 66.6822H101.252L101.245 66.6887Z" fill="white"/>
<g filter="url(#filter0_d_339_9)">
<path d="M128.576 14.2928V44.0177H140.296V51.582H120.213V14.2928H128.576ZM150.634 37.1458V44.0177H162.353V51.582H142.27V14.2928H161.767V21.8572H150.634V29.5814H157.239V37.1458H150.634ZM174.001 14.2928H178.476L189.663 51.582H180.713L179.861 47.7998H172.616L171.764 51.582H162.814L174.001 14.2928ZM174.374 40.2355H178.156L176.239 32.0318L174.374 40.2355ZM207.684 38.6374H203.316V31.073H215.675V50.0905C211.999 51.5288 207.524 52.3278 203.423 52.3278C196.711 52.3278 190.904 50.1437 190.904 44.6569V21.3245C190.904 17.4891 194.047 14.3461 197.883 14.3461H214.183V21.9105H201.984C200.44 21.9105 199.214 23.1357 199.214 24.6805V40.3953C199.214 43.1653 201.398 44.8167 204.382 44.8167C205.394 44.8167 206.512 44.6036 207.684 44.2307V38.6374ZM235.775 40.3953V14.2928H244.192V41.9401C244.192 47.2671 239.877 51.582 234.603 51.582H228.477C223.256 51.582 219.048 47.3737 219.048 42.1532V14.2928H227.465V40.3953C227.465 42.4195 228.956 44.0177 230.98 44.0177H232.259C234.283 44.0177 235.775 42.4195 235.775 40.3953ZM256.602 37.1458V44.0177H268.321V51.582H248.238V14.2928H267.735V21.8572H256.602V29.5814H263.207V37.1458H256.602ZM301.171 14.2928C305.646 14.2928 309.268 17.9152 309.268 22.3899V43.4849C309.268 47.9597 305.646 51.582 301.171 51.582H292.222C287.747 51.582 284.125 47.9597 284.125 43.4849V22.2301C284.125 17.8619 287.694 14.2928 292.062 14.2928H301.171ZM300.852 40.9812V24.8936C300.852 23.189 299.467 21.8572 297.815 21.8572H295.578C293.926 21.8572 292.541 23.189 292.541 24.8936V40.9812C292.541 42.6859 293.926 44.0177 295.578 44.0177H297.815C299.467 44.0177 300.852 42.6859 300.852 40.9812ZM313.214 51.582V14.2928H332.71V21.8572H321.577V31.8188H328.183V39.3831H321.577V51.582H313.214ZM356.692 14.2928V44.0177H368.411V51.582H348.328V14.2928H356.692ZM378.749 37.1458V44.0177H390.468V51.582H370.385V14.2928H389.882V21.8572H378.749V29.5814H385.354V37.1458H378.749ZM409.841 38.6374H405.473V31.073H417.831V50.0905C414.156 51.5288 409.681 52.3278 405.579 52.3278C398.867 52.3278 393.061 50.1437 393.061 44.6569V21.3245C393.061 17.4891 396.204 14.3461 400.039 14.3461H416.34V21.9105H404.141C402.596 21.9105 401.371 23.1357 401.371 24.6805V40.3953C401.371 43.1653 403.555 44.8167 406.538 44.8167C407.55 44.8167 408.669 44.6036 409.841 44.2307V38.6374ZM429.834 37.1458V44.0177H441.554V51.582H421.471V14.2928H440.968V21.8572H429.834V29.5814H436.44V37.1458H429.834ZM461.246 32.6178V14.2928H469.609V51.582H465.188V51.5288L452.776 33.843V51.582H444.412V14.2928H448.834L461.246 32.6178ZM490.423 38.6374H486.054V31.073H498.413V50.0905C494.737 51.5288 490.263 52.3278 486.161 52.3278C479.449 52.3278 473.642 50.1437 473.642 44.6569V21.3245C473.642 17.4891 476.785 14.3461 480.621 14.3461H496.922V21.9105H484.723C483.178 21.9105 481.953 23.1357 481.953 24.6805V40.3953C481.953 43.1653 484.137 44.8167 487.12 44.8167C488.132 44.8167 489.251 44.6036 490.423 44.2307V38.6374ZM509.404 24.8936C509.404 29.3151 523.787 31.2328 523.787 39.7028V43.4849C523.787 47.9597 520.164 51.582 515.69 51.582H501.413V44.0177H512.44C514.145 44.0177 515.477 42.6859 515.477 40.9812C515.477 35.4944 501.094 35.4411 501.094 25.959V22.2301C501.094 17.8619 504.663 14.2928 509.031 14.2928H522.988V21.8572H512.44C510.736 21.8572 509.404 23.189 509.404 24.8936Z" fill="white"/>
<path d="M117.751 83.796V72.0382H156.088V83.796H143.005V129.999H130.005V83.796H117.751ZM185.073 72.0382C192.028 72.0382 197.658 77.6687 197.658 84.624V117.413C197.658 124.369 192.028 129.999 185.073 129.999H171.162C164.207 129.999 158.576 124.369 158.576 117.413V84.3756C158.576 77.5859 164.124 72.0382 170.914 72.0382H185.073ZM184.576 113.522V88.5156C184.576 85.866 182.423 83.796 179.856 83.796H176.379C173.812 83.796 171.659 85.866 171.659 88.5156V113.522C171.659 116.171 173.812 118.241 176.379 118.241H179.856C182.423 118.241 184.576 116.171 184.576 113.522ZM229.376 112.611V72.0382H242.459V115.012C242.459 123.292 235.752 129.999 227.555 129.999H218.033C209.918 129.999 203.377 123.458 203.377 115.343V72.0382H216.459V112.611C216.459 115.757 218.778 118.241 221.924 118.241H223.912C227.058 118.241 229.376 115.757 229.376 112.611ZM279.055 104.248C281.704 105.987 283.609 108.719 284.354 112.362L287.831 129.999H274.832L271.354 114.846C270.526 112.197 269.201 110.789 266.634 110.789H261.749V129.999H248.749V72.0382H273.258C280.214 72.0382 285.844 77.6687 285.844 84.624V93.0697C285.844 97.955 283.112 102.178 279.055 104.248ZM273.01 94.3117V88.5156C273.01 85.866 270.857 83.796 268.29 83.796H261.749V99.0314H268.29C270.857 99.0314 273.01 96.9614 273.01 94.3117ZM318.741 100.522V72.0382H331.741V129.999H324.868V129.916L305.576 102.426V129.999H292.576V72.0382H299.448L318.741 100.522ZM364.34 72.0382C371.296 72.0382 376.926 77.6687 376.926 84.624V117.413C376.926 124.369 371.296 129.999 364.34 129.999H350.43C343.475 129.999 337.844 124.369 337.844 117.413V84.3756C337.844 77.5859 343.392 72.0382 350.181 72.0382H364.34ZM363.844 113.522V88.5156C363.844 85.866 361.691 83.796 359.124 83.796H355.646C353.079 83.796 350.927 85.866 350.927 88.5156V113.522C350.927 116.171 353.079 118.241 355.646 118.241H359.124C361.691 118.241 363.844 116.171 363.844 113.522ZM396.058 129.999H383.059V72.0382H396.058V129.999ZM414.215 88.5156C414.215 95.3881 436.571 98.369 436.571 111.534V117.413C436.571 124.369 430.941 129.999 423.986 129.999H401.795V118.241H418.935C421.584 118.241 423.654 116.171 423.654 113.522C423.654 104.993 401.298 104.91 401.298 90.1717V84.3756C401.298 77.5859 406.846 72.0382 413.636 72.0382H435.329V83.796H418.935C416.285 83.796 414.215 85.866 414.215 88.5156ZM488.467 97.127V72.0382H501.467V129.999H488.467V108.802H475.302V129.999H462.302V72.0382H475.302V97.127H488.467ZM521.812 72.0382H528.767L546.156 129.999H532.245L530.92 124.12H519.659L518.334 129.999H504.424L521.812 72.0382ZM522.392 112.362H528.27L525.29 99.611L522.392 112.362ZM574.416 72.0382C581.371 72.0382 587.002 77.6687 587.002 84.624V117.413C587.002 123.292 582.944 128.26 577.397 129.668L583.855 140.349H569.199L562.989 129.999H560.505C553.55 129.999 547.92 124.369 547.92 117.413V84.3756C547.92 77.5859 553.467 72.0382 560.257 72.0382H574.416ZM573.919 113.522V88.5156C573.919 85.866 571.766 83.796 569.199 83.796H565.722C563.155 83.796 561.002 85.866 561.002 88.5156V113.522C561.002 116.171 563.155 118.241 565.722 118.241H569.199C571.766 118.241 573.919 116.171 573.919 113.522Z" fill="white"/>
<rect width="201.557" height="52" transform="translate(393.223 151.998)" fill="#DCFC35"/>
<path d="M431.059 171.727C431.059 175.251 442.522 176.78 442.522 183.53V186.545C442.522 190.111 439.635 192.998 436.069 192.998H424.69V186.969H433.479C434.837 186.969 435.899 185.908 435.899 184.549C435.899 180.176 424.436 180.134 424.436 172.576V169.605C424.436 166.123 427.28 163.279 430.762 163.279H441.885V169.307H433.479C432.12 169.307 431.059 170.369 431.059 171.727ZM452.106 163.279H455.673L464.589 192.998H457.456L456.777 189.984H451.003L450.323 192.998H443.191L452.106 163.279ZM452.404 183.955H455.418L453.89 177.417L452.404 183.955ZM472.788 192.998H466.122V163.279H472.788V192.998ZM482.098 171.727C482.098 175.251 493.561 176.78 493.561 183.53V186.545C493.561 190.111 490.674 192.998 487.108 192.998H475.729V186.969H484.518C485.876 186.969 486.938 185.908 486.938 184.549C486.938 180.176 475.474 180.134 475.474 172.576V169.605C475.474 166.123 478.319 163.279 481.8 163.279H492.924V169.307H484.518C483.159 169.307 482.098 170.369 482.098 171.727ZM509.429 163.279C512.995 163.279 515.882 166.166 515.882 169.732V186.545C515.882 190.111 512.995 192.998 509.429 192.998H502.296C498.73 192.998 495.843 190.111 495.843 186.545V169.605C495.843 166.123 498.688 163.279 502.169 163.279H509.429ZM509.174 184.549V171.727C509.174 170.369 508.07 169.307 506.754 169.307H504.971C503.655 169.307 502.551 170.369 502.551 171.727V184.549C502.551 185.908 503.655 186.969 504.971 186.969H506.754C508.07 186.969 509.174 185.908 509.174 184.549ZM532.443 177.884V163.279H539.109V192.998H535.585V192.956L525.692 178.86V192.998H519.027V163.279H522.551L532.443 177.884ZM556.121 163.279C559.688 163.279 562.575 166.166 562.575 169.732V192.998H555.867V171.727C555.867 170.369 554.763 169.307 553.447 169.307H552.555V163.279H556.121Z" fill="#191D06"/>
</g>
<defs>
<filter id="filter0_d_339_9" x="113.948" y="0.582031" width="484.635" height="211.022" filterUnits="userSpaceOnUse" color-interpolation-filters="sRGB">
<feFlood flood-opacity="0" result="BackgroundImageFix"/>
<feColorMatrix in="SourceAlpha" type="matrix" values="0 0 0 0 0 0 0 0 0 0 0 0 0 0 0 0 0 0 127 0" result="hardAlpha"/>
<feOffset dy="3.80296"/>
<feGaussianBlur stdDeviation="1.90148"/>
<feComposite in2="hardAlpha" operator="out"/>
<feColorMatrix type="matrix" values="0 0 0 0 0 0 0 0 0 0 0 0 0 0 0 0 0 0 0.25 0"/>
<feBlend mode="normal" in2="BackgroundImageFix" result="effect1_dropShadow_339_9"/>
<feBlend mode="normal" in="SourceGraphic" in2="effect1_dropShadow_339_9" result="shape"/>
</filter>
</defs>
</svg>
